<svg width="60" height="60" viewBox="0 0 60 60" fill="none" xmlns="http://www.w3.org/2000/svg">
<circle cx="30" cy="30" r="30" fill="#F4F2F2"/>
<path d="M32.9062 29.7188H20.25C15.5897 29.7188 11.8125 33.4966 11.8125 38.1562V45.1875H41.3438V38.1562C41.3438 33.4966 37.5659 29.7188 32.9062 29.7188Z" fill="#005B8A"/>
<path d="M41.3438 45.5391H11.8125C11.6184 45.5391 11.4609 45.3816 11.4609 45.1875V38.1562C11.4609 33.3096 15.4034 29.3672 20.25 29.3672H32.9062C37.7529 29.3672 41.6953 33.3096 41.6953 38.1562V45.1875C41.6953 45.3816 41.5378 45.5391 41.3438 45.5391ZM12.1641 44.8359H40.9922V38.1562C40.9922 33.6977 37.3648 30.0703 32.9062 30.0703H20.25C15.7915 30.0703 12.1641 33.6977 12.1641 38.1562V44.8359Z" fill="#212A41"/>
<path d="M17.4375 38.1562V45.1875H46.9688V38.1562C46.9688 33.4966 43.1909 29.7188 38.5312 29.7188H25.875C21.2147 29.7188 17.4375 33.4966 17.4375 38.1562Z" fill="#E0E0E0"/>
<path d="M46.9688 45.5391H17.4375C17.2434 45.5391 17.0859 45.3816 17.0859 45.1875V38.1562C17.0859 33.3096 21.0284 29.3672 25.875 29.3672H38.5312C43.3779 29.3672 47.3203 33.3096 47.3203 38.1562V45.1875C47.3203 45.3816 47.1628 45.5391 46.9688 45.5391ZM17.7891 44.8359H46.6172V38.1562C46.6172 33.6977 42.9898 30.0703 38.5312 30.0703H25.875C21.4165 30.0703 17.7891 33.6977 17.7891 38.1562V44.8359Z" fill="#212A41"/>
<path d="M37.8281 18.4688C38.9931 18.4688 39.9375 17.5244 39.9375 16.3594C39.9375 15.1944 38.9931 14.25 37.8281 14.25C36.6631 14.25 35.7188 15.1944 35.7188 16.3594C35.7188 17.5244 36.6631 18.4688 37.8281 18.4688Z" fill="#E8D2A8"/>
<path d="M37.8281 18.8203C36.4711 18.8203 35.3672 17.7164 35.3672 16.3594C35.3672 15.0023 36.4711 13.8984 37.8281 13.8984C39.1852 13.8984 40.2891 15.0023 40.2891 16.3594C40.2891 17.7164 39.1852 18.8203 37.8281 18.8203ZM37.8281 14.6016C36.8592 14.6016 36.0703 15.3905 36.0703 16.3594C36.0703 17.3283 36.8592 18.1172 37.8281 18.1172C38.797 18.1172 39.5859 17.3283 39.5859 16.3594C39.5859 15.3905 38.797 14.6016 37.8281 14.6016Z" fill="#212A41"/>
<path d="M20.9531 10.0312V14.25C19.788 14.25 18.8438 15.1943 18.8438 16.3594C18.8438 17.5245 19.788 18.4688 20.9531 18.4688V19.875C20.9531 22.9814 23.4717 25.5 26.5781 25.5H32.2031C35.3095 25.5 37.8281 22.9814 37.8281 19.875V10.0312C37.8281 7.70109 35.9395 5.8125 33.6094 5.8125H25.1719C22.8417 5.8125 20.9531 7.70109 20.9531 10.0312Z" fill="#E0C8A4"/>
<path d="M32.2031 25.8516H26.5781C23.2826 25.8516 20.6016 23.1705 20.6016 19.875V18.795C19.4105 18.6241 18.4922 17.5969 18.4922 16.3594C18.4922 15.1219 19.4105 14.0946 20.6016 13.9237V10.0312C20.6016 7.51125 22.6519 5.46094 25.1719 5.46094H33.6094C36.1294 5.46094 38.1797 7.51125 38.1797 10.0312V19.875C38.1797 23.1705 35.4987 25.8516 32.2031 25.8516ZM25.1719 6.16406C23.0393 6.16406 21.3047 7.89867 21.3047 10.0312V14.25C21.3047 14.4441 21.1472 14.6016 20.9531 14.6016C19.9842 14.6016 19.1953 15.3905 19.1953 16.3594C19.1953 17.3283 19.9842 18.1172 20.9531 18.1172C21.1472 18.1172 21.3047 18.2747 21.3047 18.4688V19.875C21.3047 22.7831 23.67 25.1484 26.5781 25.1484H32.2031C35.1112 25.1484 37.4766 22.7831 37.4766 19.875V10.0312C37.4766 7.89867 35.742 6.16406 33.6094 6.16406H25.1719Z" fill="#212A41"/>
<path d="M32.2031 24.4453C32.0091 24.4453 31.8516 24.2878 31.8516 24.0938C31.8516 23.8997 32.0091 23.7422 32.2031 23.7422C34.3357 23.7422 36.0703 22.0076 36.0703 19.875V11.4375C36.0703 11.2434 36.2278 11.0859 36.4219 11.0859C36.6159 11.0859 36.7734 11.2434 36.7734 11.4375V19.875C36.7734 22.395 34.7231 24.4453 32.2031 24.4453Z" fill="#C2AA86"/>
<path d="M26.5781 24.4453C24.0581 24.4453 22.0078 22.395 22.0078 19.875V18.4688C22.0078 18.2747 22.1653 18.1172 22.3594 18.1172C22.5534 18.1172 22.7109 18.2747 22.7109 18.4688V19.875C22.7109 22.0076 24.4455 23.7422 26.5781 23.7422C26.7722 23.7422 26.9297 23.8997 26.9297 24.0938C26.9297 24.2878 26.7722 24.4453 26.5781 24.4453Z" fill="#FEE6C2"/>
<path d="M38.5312 29.7188H35.7188L37.125 25.5L38.5312 29.7188Z" fill="#0079A8"/>
<path d="M38.5312 30.0703H35.7187C35.6055 30.0703 35.4994 30.0162 35.4333 29.9241C35.3672 29.8327 35.3489 29.7145 35.3855 29.607L36.7917 25.3882C36.8873 25.1013 37.3626 25.1013 37.4583 25.3882L38.8645 29.607C38.9004 29.7138 38.8821 29.832 38.8167 29.9241C38.7506 30.0162 38.6444 30.0703 38.5312 30.0703ZM36.2067 29.3672H38.0433L37.125 26.6116L36.2067 29.3672Z" fill="#212A41"/>
<path d="M35.7188 29.7188H32.9062V25.5H37.125L35.7188 29.7188Z" fill="#005B8A"/>
<path d="M35.7187 30.0703H32.9062C32.7122 30.0703 32.5547 29.9128 32.5547 29.7188V25.5C32.5547 25.3059 32.7122 25.1484 32.9062 25.1484H37.125C37.2382 25.1484 37.3444 25.2026 37.4105 25.2947C37.4766 25.3861 37.4948 25.5042 37.4583 25.6118L36.052 29.8305C36.0042 29.9733 35.8699 30.0703 35.7187 30.0703ZM33.2578 29.3672H35.4656L36.6377 25.8516H33.2578V29.3672Z" fill="#212A41"/>
<path d="M32.9062 25.5H25.875V29.7188H32.9062V25.5Z" fill="#E8D2A8"/>
<path d="M32.9062 30.0703H25.875C25.6809 30.0703 25.5234 29.9128 25.5234 29.7188V25.5C25.5234 25.3059 25.6809 25.1484 25.875 25.1484H32.9062C33.1003 25.1484 33.2578 25.3059 33.2578 25.5V29.7188C33.2578 29.9128 33.1003 30.0703 32.9062 30.0703ZM26.2266 29.3672H32.5547V25.8516H26.2266V29.3672Z" fill="#212A41"/>
<path d="M28.6875 29.7188H24.4688L21.6562 25.5H25.875L28.6875 29.7188Z" fill="#0079A8"/>
<path d="M28.6875 30.0703H24.4687C24.3513 30.0703 24.2416 30.012 24.1762 29.9135L21.3637 25.6948C21.292 25.5872 21.285 25.448 21.3462 25.3341C21.4073 25.2202 21.5262 25.1484 21.6562 25.1484H25.875C25.9924 25.1484 26.1021 25.2068 26.1675 25.3052L28.98 29.524C29.0517 29.6316 29.0587 29.7708 28.9976 29.8847C28.9364 29.9986 28.8176 30.0703 28.6875 30.0703ZM24.6572 29.3672H28.0308L25.6873 25.8516H22.3137L24.6572 29.3672Z" fill="#212A41"/>
<path d="M24.4688 29.7188H20.25L21.6562 25.5H25.875L24.4688 29.7188Z" fill="#005B8A"/>
<path d="M24.4687 30.0703H20.25C20.1368 30.0703 20.0306 30.0162 19.9645 29.9241C19.8984 29.8327 19.8802 29.7145 19.9167 29.607L21.323 25.3882C21.3708 25.2455 21.5051 25.1484 21.6562 25.1484H25.875C25.9882 25.1484 26.0944 25.2026 26.1605 25.2947C26.2266 25.3861 26.2448 25.5042 26.2083 25.6118L24.802 29.8305C24.7542 29.9733 24.6199 30.0703 24.4687 30.0703ZM20.738 29.3672H24.2156L25.3877 25.8516H21.9094L20.738 29.3672Z" fill="#212A41"/>
<path d="M20.9531 18.8203C20.2957 18.8203 19.6777 18.5644 19.2129 18.0996C18.2531 17.1406 18.2531 15.5789 19.2129 14.6198C20.1424 13.6903 21.7638 13.6903 22.6934 14.6198C22.8305 14.757 22.8305 14.9798 22.6934 15.117C22.5563 15.2541 22.3334 15.2541 22.1963 15.117C21.5318 14.4525 20.3738 14.4532 19.71 15.117C19.0245 15.8025 19.0245 16.9177 19.71 17.6025C20.3738 18.2663 21.5318 18.2663 22.1963 17.6025C22.3334 17.4654 22.5563 17.4654 22.6934 17.6025C22.8305 17.7396 22.8305 17.9625 22.6934 18.0996C22.2286 18.5644 21.6106 18.8203 20.9531 18.8203Z" fill="#212A41"/>
<path d="M32.2031 37.4531V45.1875H17.4375V38.1562C17.4375 33.4966 21.2154 29.7188 25.875 29.7188H28.6875L32.2031 37.4531Z" fill="#0079A8"/>
<path d="M32.2031 45.5391H17.4375C17.2434 45.5391 17.0859 45.3816 17.0859 45.1875V38.1562C17.0859 33.3096 21.0284 29.3672 25.875 29.3672H28.6875C28.8253 29.3672 28.9505 29.448 29.0074 29.5732L32.523 37.3076C32.5441 37.3533 32.5547 37.4032 32.5547 37.4531V45.1875C32.5547 45.3816 32.3972 45.5391 32.2031 45.5391ZM17.7891 44.8359H31.8516V37.5291L28.4611 30.0703H25.875C21.4165 30.0703 17.7891 33.6977 17.7891 38.1562V44.8359Z" fill="#212A41"/>
<path d="M13.2188 44.1328C13.0247 44.1328 12.8672 43.9753 12.8672 43.7813V38.1563C12.8672 34.6568 15.3555 31.6137 18.7833 30.9197C18.9738 30.8824 19.1595 31.0048 19.1974 31.1946C19.2354 31.3845 19.1123 31.5701 18.9225 31.6088C15.821 32.2366 13.5703 34.9908 13.5703 38.1563V43.7813C13.5703 43.9753 13.4128 44.1328 13.2188 44.1328Z" fill="#0079A8"/>
<path d="M18.8437 44.1328C18.6497 44.1328 18.4922 43.9753 18.4922 43.7812V38.1562C18.4922 34.0852 21.8039 30.7734 25.875 30.7734H26.2962C26.4902 30.7734 26.6477 30.9309 26.6477 31.125C26.6477 31.3191 26.4902 31.4766 26.2962 31.4766H25.875C22.192 31.4766 19.1953 34.4733 19.1953 38.1562V43.7812C19.1953 43.9753 19.0378 44.1328 18.8437 44.1328Z" fill="#1E97C6"/>
<path d="M37.8281 14.25H20.9531V10.0312C20.9531 7.70109 22.8417 5.8125 25.1719 5.8125H33.6094C35.9395 5.8125 37.8281 7.70109 37.8281 10.0312V14.25Z" fill="#0079A8"/>
<path d="M37.8281 14.6016H20.9531C20.7591 14.6016 20.6016 14.4441 20.6016 14.25V10.0312C20.6016 7.51125 22.6519 5.46094 25.1719 5.46094H33.6094C36.1294 5.46094 38.1797 7.51125 38.1797 10.0312V14.25C38.1797 14.4441 38.0222 14.6016 37.8281 14.6016ZM21.3047 13.8984H37.4766V10.0312C37.4766 7.89867 35.742 6.16406 33.6094 6.16406H25.1719C23.0393 6.16406 21.3047 7.89867 21.3047 10.0312V13.8984Z" fill="#212A41"/>
<path d="M36.4219 11.0859C36.2278 11.0859 36.0703 10.9284 36.0703 10.7344V10.0312C36.0703 8.67422 34.9664 7.57031 33.6094 7.57031C33.4153 7.57031 33.2578 7.41281 33.2578 7.21875C33.2578 7.02469 33.4153 6.86719 33.6094 6.86719C35.3538 6.86719 36.7734 8.2868 36.7734 10.0312V10.7344C36.7734 10.9284 36.6159 11.0859 36.4219 11.0859Z" fill="#005B8A"/>
<path d="M22.3594 11.0859C22.1653 11.0859 22.0078 10.9284 22.0078 10.7344V10.0312C22.0078 8.2868 23.4274 6.86719 25.1719 6.86719C25.3659 6.86719 25.5234 7.02469 25.5234 7.21875C25.5234 7.41281 25.3659 7.57031 25.1719 7.57031C23.8148 7.57031 22.7109 8.67422 22.7109 10.0312V10.7344C22.7109 10.9284 22.5534 11.0859 22.3594 11.0859Z" fill="#005B8A"/>
<path d="M32.2031 37.4531V45.1875H46.9688V38.1562C46.9688 33.4966 43.1909 29.7188 38.5312 29.7188H35.7188L32.2031 37.4531Z" fill="#0079A8"/>
<path d="M46.9688 45.5391H32.2031C32.0091 45.5391 31.8516 45.3816 31.8516 45.1875V37.4531C31.8516 37.4032 31.8621 37.3533 31.8832 37.3076L35.3988 29.5732C35.4558 29.448 35.5809 29.3672 35.7188 29.3672H38.5312C43.3779 29.3672 47.3203 33.3096 47.3203 38.1562V45.1875C47.3203 45.3816 47.1628 45.5391 46.9688 45.5391ZM32.5547 44.8359H46.6172V38.1562C46.6172 33.6977 42.9898 30.0703 38.5312 30.0703H35.9452L32.5547 37.5291V44.8359Z" fill="#212A41"/>
<path d="M45.5625 44.1328C45.3684 44.1328 45.2109 43.9753 45.2109 43.7812V38.1562C45.2109 34.4733 42.2142 31.4766 38.5312 31.4766H38.1101C37.916 31.4766 37.7585 31.3191 37.7585 31.125C37.7585 30.9309 37.916 30.7734 38.1101 30.7734H38.5312C42.6023 30.7734 45.9141 34.0852 45.9141 38.1562V43.7812C45.9141 43.9753 45.7566 44.1328 45.5625 44.1328Z" fill="#005B8A"/>
<path d="M31.5 28.6641C31.3059 28.6641 31.1484 28.5066 31.1484 28.3125V26.9062C31.1484 26.7122 31.3059 26.5547 31.5 26.5547C31.6941 26.5547 31.8516 26.7122 31.8516 26.9062V28.3125C31.8516 28.5066 31.6941 28.6641 31.5 28.6641Z" fill="#C2AA86"/>
<path d="M42.75 12.1406H20.9531V14.25H42.75C43.1381 14.25 43.4531 13.935 43.4531 13.5469V12.8438C43.4531 12.4556 43.1381 12.1406 42.75 12.1406Z" fill="#0079A8"/>
<path d="M42.75 14.6016H20.9531C20.7591 14.6016 20.6016 14.4441 20.6016 14.25V12.1406C20.6016 11.9466 20.7591 11.7891 20.9531 11.7891H42.75C43.3315 11.7891 43.8047 12.2623 43.8047 12.8438V13.5469C43.8047 14.1284 43.3315 14.6016 42.75 14.6016ZM21.3047 13.8984H42.75C42.9441 13.8984 43.1016 13.7409 43.1016 13.5469V12.8438C43.1016 12.6497 42.9441 12.4922 42.75 12.4922H21.3047V13.8984Z" fill="#212A41"/>
<path d="M46.9688 38.1562H31.5V45.1875H46.9688V38.1562Z" fill="#99A2B9"/>
<path d="M46.9688 45.5391H31.5C31.3059 45.5391 31.1484 45.3816 31.1484 45.1875V38.1562C31.1484 37.9622 31.3059 37.8047 31.5 37.8047H46.9688C47.1628 37.8047 47.3203 37.9622 47.3203 38.1562V45.1875C47.3203 45.3816 47.1628 45.5391 46.9688 45.5391ZM31.8516 44.8359H46.6172V38.5078H31.8516V44.8359Z" fill="#212A41"/>
<path d="M46.9688 38.1562H31.5C31.1119 38.1562 30.7969 37.8412 30.7969 37.4531V34.6406C30.7969 34.2525 31.1119 33.9375 31.5 33.9375H46.9688C47.3569 33.9375 47.6719 34.2525 47.6719 34.6406V37.4531C47.6719 37.8412 47.3569 38.1562 46.9688 38.1562Z" fill="#99A2B9"/>
<path d="M46.9688 38.5078H31.5C30.9185 38.5078 30.4453 38.0346 30.4453 37.4531V34.6406C30.4453 34.0591 30.9185 33.5859 31.5 33.5859H46.9688C47.5502 33.5859 48.0234 34.0591 48.0234 34.6406V37.4531C48.0234 38.0346 47.5502 38.5078 46.9688 38.5078ZM31.5 34.2891C31.3059 34.2891 31.1484 34.4466 31.1484 34.6406V37.4531C31.1484 37.6472 31.3059 37.8047 31.5 37.8047H46.9688C47.1628 37.8047 47.3203 37.6472 47.3203 37.4531V34.6406C47.3203 34.4466 47.1628 34.2891 46.9688 34.2891H31.5Z" fill="#212A41"/>
<path d="M50.4844 38.1562H35.0156V45.1875H50.4844V38.1562Z" fill="#B7C0D7"/>
<path d="M50.4844 45.5391H35.0156C34.8216 45.5391 34.6641 45.3816 34.6641 45.1875V38.1562C34.6641 37.9622 34.8216 37.8047 35.0156 37.8047H50.4844C50.6784 37.8047 50.8359 37.9622 50.8359 38.1562V45.1875C50.8359 45.3816 50.6784 45.5391 50.4844 45.5391ZM35.3672 44.8359H50.1328V38.5078H35.3672V44.8359Z" fill="#212A41"/>
<path d="M50.4844 38.1562H35.0156C34.6275 38.1562 34.3125 37.8412 34.3125 37.4531V34.6406C34.3125 34.2525 34.6275 33.9375 35.0156 33.9375H50.4844C50.8725 33.9375 51.1875 34.2525 51.1875 34.6406V37.4531C51.1875 37.8412 50.8725 38.1562 50.4844 38.1562Z" fill="#B7C0D7"/>
<path d="M50.4844 38.5078H35.0156C34.4341 38.5078 33.9609 38.0346 33.9609 37.4531V34.6406C33.9609 34.0591 34.4341 33.5859 35.0156 33.5859H50.4844C51.0659 33.5859 51.5391 34.0591 51.5391 34.6406V37.4531C51.5391 38.0346 51.0659 38.5078 50.4844 38.5078ZM35.0156 34.2891C34.8216 34.2891 34.6641 34.4466 34.6641 34.6406V37.4531C34.6641 37.6472 34.8216 37.8047 35.0156 37.8047H50.4844C50.6784 37.8047 50.8359 37.6472 50.8359 37.4531V34.6406C50.8359 34.4466 50.6784 34.2891 50.4844 34.2891H35.0156Z" fill="#212A41"/>
<path d="M44.1562 40.9688L42.75 39.5625L41.3438 40.9688V33.9375H44.1562V40.9688Z" fill="#F9AC2F"/>
<path d="M44.1562 41.3203C44.0648 41.3203 43.9748 41.2845 43.9073 41.2177L42.75 40.0596L41.5927 41.217C41.4914 41.3175 41.3409 41.3477 41.2095 41.2929C41.078 41.2395 40.9922 41.1108 40.9922 40.9688V33.9375C40.9922 33.7434 41.1497 33.5859 41.3438 33.5859H44.1562C44.3503 33.5859 44.5078 33.7434 44.5078 33.9375V40.9688C44.5078 41.1108 44.422 41.2395 44.2905 41.2936C44.247 41.3119 44.2013 41.3203 44.1562 41.3203ZM42.75 39.2109C42.84 39.2109 42.93 39.2454 42.9989 39.3136L43.8047 40.1194V34.2891H41.6953V40.1201L42.5011 39.3143C42.57 39.2454 42.66 39.2109 42.75 39.2109Z" fill="#212A41"/>
<path d="M49.0781 44.1328C48.8841 44.1328 48.7266 43.9753 48.7266 43.7812V39.5625C48.7266 39.3684 48.8841 39.2109 49.0781 39.2109C49.2722 39.2109 49.4297 39.3684 49.4297 39.5625V43.7812C49.4297 43.9753 49.2722 44.1328 49.0781 44.1328Z" fill="#99A2B9"/>
<path d="M49.7812 37.1016C49.5872 37.1016 49.4297 36.9441 49.4297 36.75V35.3438C49.4297 35.1497 49.5872 34.9922 49.7812 34.9922C49.9753 34.9922 50.1328 35.1497 50.1328 35.3438V36.75C50.1328 36.9441 49.9753 37.1016 49.7812 37.1016Z" fill="#99A2B9"/>
<path d="M35.7188 37.1016C35.5247 37.1016 35.3672 36.9441 35.3672 36.75V35.3438C35.3672 35.1497 35.5247 34.9922 35.7188 34.9922C35.9128 34.9922 36.0703 35.1497 36.0703 35.3438V36.75C36.0703 36.9441 35.9128 37.1016 35.7188 37.1016Z" fill="#D5DEF5"/>
<path d="M36.4219 44.1328C36.2278 44.1328 36.0703 43.9753 36.0703 43.7812V39.5625C36.0703 39.3684 36.2278 39.2109 36.4219 39.2109C36.6159 39.2109 36.7734 39.3684 36.7734 39.5625V43.7812C36.7734 43.9753 36.6159 44.1328 36.4219 44.1328Z" fill="#D5DEF5"/>
</svg>
